#!OML:ASF E:\Style4\Style4.ASF
:FULLY-SPECIFIED
:DEGREES
2006
root 0.358366 16.857 -1.3501 3.83822 -9.34115 1.85852
lowerback 15.7249 1.36492 -2.80008
upperback 10.0998 1.3802 -0.735902
thorax 1.87126 0.559989 0.613779
lowerneck 2.62731 -5.75246 -6.03832
upperneck -7.46718 -7.2865 11.7972
head -1.94757 -3.87739 4.67938
rclavicle 1.88845e-015 -9.93923e-016
rhumerus 37.4692 22.7175 -50.9379
rradius 101.389
rwrist -43.7081
rhand -17.0484 3.63141
rfingers 7.12502
rthumb 9.18868 -26.1484
lclavicle 1.88845e-015 -9.93923e-016
lhumerus 35.2725 -35.7019 75.4043
lradius 105.173
lwrist 55.2758
lhand -37.263 39.7483
lfingers 7.12502
lthumb -10.3283 69.4746
rfemur -33.8483 -1.54915 17.037
rtibia 53.8669
rfoot -22.1832 -14.3662
rtoes -12.0329
lfemur -30.7091 8.7491 -21.7763
ltibia 53.3663
lfoot -26.2021 11.2036
ltoes -14.6878
2007
root 0.335633 16.8431 -1.35807 3.77117 -9.02859 1.82964
lowerback 15.7898 1.36212 -2.95009
upperback 10.2123 1.35888 -0.821183
thorax 1.95955 0.543429 0.611366
lowerneck 2.59127 -5.78006 -6.09326
upperneck -7.48664 -7.30117 12.2057
head -1.92612 -3.89653 4.8111
rclavicle -1.28216e-014 1.22253e-014
rhumerus 38.1237 22.5232 -50.1078
rradius 101.006
rwrist -44.0296
rhand -16.3963 3.43268
rfingers 7.12502
rthumb 9.81781 -26.3184
lclavicle -1.28216e-014 1.22253e-014
lhumerus 35.1904 -35.4121 76.0691
lradius 104.858
lwrist 54.9585
lhand -37.0079 39.5858
lfingers 7.12502
lthumb -10.0823 69.3242
rfemur -33.8577 -1.71404 17.1521
rtibia 54.118
rfoot -22.4009 -14.4049
rtoes -11.7319
lfemur -30.8027 8.66098 -21.6389
ltibia 53.571
lfoot -26.1644 11.0182
ltoes -14.4652
2008
root 0.313177 16.8265 -1.36639 3.72509 -8.71777 1.80367
lowerback 15.858 1.38408 -3.05178
upperback 10.3117 1.37561 -0.936583
thorax 2.0324 0.549489 0.544711
lowerneck 2.58281 -5.82041 -6.08177
upperneck -7.52389 -7.32998 12.6007
head -1.91619 -3.9252 4.9297
rclavicle 2.01766e-014 7.65321e-015
rhumerus 38.6729 22.2682 -49.3562
rradius 100.655
rwrist -44.4598
rhand -15.6525 3.1654
rfingers 7.12502
rthumb 10.5354 -26.5506
lclavicle 2.01766e-014 7.65321e-015
lhumerus 35.1201 -35.1403 76.7719
lradius 104.434
lwrist 54.3436
lhand -36.1397 39.6209
lfingers 7.12502
lthumb -9.2446 69.3983
rfemur -33.8949 -1.93075 17.2771
rtibia 54.3516
rfoot -22.5485 -14.5024
rtoes -11.8501
lfemur -30.9197 8.53996 -21.4949
ltibia 53.7814
lfoot -26.2507 10.7503
ltoes -14.012
2009
root 0.289859 16.8129 -1.37492 3.70492 -8.40679 1.6987
lowerback 15.9339 1.3922 -3.09355
upperback 10.3852 1.38088 -1.01934
thorax 2.07379 0.55225 0.479814
lowerneck 2.58397 -5.82818 -6.13709
upperneck -7.53152 -7.31891 13.0279
head -1.89885 -3.93283 5.06866
rclavicle -4.47266e-015 -2.54444e-014
rhumerus 39.1775 22.0784 -48.6131
rradius 100.376
rwrist -45.1306
rhand -14.4728 2.70025
rfingers 7.12502
rthumb 11.6732 -26.9546
lclavicle -4.47266e-015 -2.54444e-014
lhumerus 34.903 -34.9047 77.5522
lradius 104.07
lwrist 53.8542
lhand -35.5781 39.3146
lfingers 7.12502
lthumb -8.70266 69.1152
rfemur -33.9341 -2.12837 17.4979
rtibia 54.5632
rfoot -22.6792 -14.5568
rtoes -12.0119
lfemur -31.0707 8.43908 -21.2678
ltibia 54.0006
lfoot -26.3139 10.517
ltoes -13.7498
2010
root 0.263996 16.8018 -1.38149 3.64319 -8.10085 1.61282
lowerback 16.0276 1.41186 -3.17524
upperback 10.4528 1.39538 -1.08661
thorax 2.09839 0.557447 0.451828
lowerneck 2.61372 -5.84468 -6.34613
upperneck -7.50487 -7.32595 13.5606
head -1.86363 -3.94884 5.2651
rclavicle -1.43125e-014 8.34896e-015
rhumerus 39.6506 21.9558 -47.859
rradius 100.086
rwrist -45.8416
rhand -13.3645 2.33477
rfingers 7.12502
rthumb 12.7418 -27.2565
lclavicle -1.43125e-014 8.34896e-015
lhumerus 34.5696 -34.7651 78.364
lradius 103.825
lwrist 53.6581
lhand -35.447 38.4733
lfingers 7.12502
lthumb -8.5762 68.2792
rfemur -33.9158 -2.2969 17.6954
rtibia 54.7678
rfoot -22.8331 -14.5559
rtoes -11.9867
lfemur -31.1546 8.33564 -21.0567
ltibia 54.21
lfoot -26.2912 10.3137
ltoes -13.6312
2011
root 0.237813 16.7883 -1.38846 3.59646 -7.8222 1.58199
lowerback 16.1082 1.40636 -3.42361
upperback 10.5253 1.35674 -1.10463
thorax 2.13359 0.525774 0.5767
lowerneck 2.50326 -5.83124 -6.62099
upperneck -7.37529 -7.30753 13.9753
head -1.77994 -3.93938 5.42874
rclavicle 1.36167e-014 -8.15017e-015
rhumerus 40.3155 21.9613 -47.0117
rradius 99.7356
rwrist -46.3046
rhand -12.3806 1.84989
rfingers 7.12502
rthumb 13.6903 -27.6798
lclavicle 1.36167e-014 -8.15017e-015
lhumerus 34.2499 -34.4973 79.105
lradius 103.836
lwrist 53.856
lhand -35.9231 38.0715
lfingers 7.12502
lthumb -9.03563 67.858
rfemur -33.9401 -2.46551 17.8344
rtibia 54.9781
rfoot -22.9551 -14.6092
rtoes -11.8859
lfemur -31.2551 8.24441 -20.9173
ltibia 54.4185
lfoot -26.3133 10.0732
ltoes -13.352
2012
root 0.213955 16.7756 -1.39434 3.59602 -7.57631 1.57781
lowerback 16.1583 1.37483 -3.75204
upperback 10.591 1.27512 -1.10095
thorax 2.17825 0.46746 0.775784
lowerneck 2.27294 -5.7684 -6.89274
upperneck -7.16883 -7.22973 14.2985
head -1.66447 -3.89112 5.55811
rclavicle 4.96962e-015 -7.15625e-015
rhumerus 41.1545 21.9568 -46.2065
rradius 99.3509
rwrist -46.1503
rhand -10.9092 0.708205
rfingers 7.12502
rthumb 15.108 -28.7204
lclavicle 4.96962e-015 -7.15625e-015
lhumerus 33.9649 -34.1019 79.7638
lradius 104.069
lwrist 54.6426
lhand -36.853 38.1695
lfingers 7.12502
lthumb -9.93279 67.9152
rfemur -34.0146 -2.59766 17.9204
rtibia 55.1871
rfoot -23.1532 -14.5964
rtoes -11.3089
lfemur -31.4068 8.14407 -20.8206
ltibia 54.6159
lfoot -26.3286 9.93082
ltoes -13.3812
2013
root 0.190841 16.7635 -1.39735 3.58474 -7.28406 1.59949
lowerback 16.2295 1.4094 -3.83527
upperback 10.7042 1.31089 -1.24321
thorax 2.26549 0.484179 0.667456
lowerneck 1.87662 -5.83775 -6.88054
upperneck -6.9508 -7.31107 14.686
head -1.509 -3.92496 5.65352
rclavicle 5.76476e-015 -2.74323e-014
rhumerus 41.7668 22.347 -44.9325
rradius 100.43
rwrist -50.55
rhand -14.9137 -1.17804
rfingers 7.12502
rthumb 11.248 -30.8565
lclavicle 5.76476e-015 -2.74323e-014
lhumerus 33.6876 -34.0086 80.3418
lradius 104.155
lwrist 55.4251
lhand -37.5422 37.7242
lfingers 7.12502
lthumb -10.5977 67.437
rfemur -34.0635 -2.80562 17.9779
rtibia 55.392
rfoot -23.3216 -14.5853
rtoes -10.7374
lfemur -31.5402 7.98221 -20.756
ltibia 54.8057
lfoot -26.2492 9.85283
ltoes -13.5473
2014
root 0.16525 16.7514 -1.40226 3.55092 -6.95833 1.5191
lowerback 16.3901 1.52754 -3.61448
upperback 10.8438 1.4902 -1.46571
thorax 2.33641 0.59161 0.282466
lowerneck 1.41408 -6.02874 -6.61933
upperneck -6.74473 -7.54727 15.0895
head -1.33773 -4.03905 5.70868
rclavicle -3.97569e-016 -1.15295e-014
rhumerus 41.8408 21.3399 -44.9473
rradius 98.5416
rwrist -47.1761
rhand -11.3029 2.08867
rfingers 7.12502
rthumb 14.7287 -27.3681
lclavicle -3.97569e-016 -1.15295e-014
lhumerus 33.3859 -34.2346 80.9563
lradius 103.842
lwrist 54.993
lhand -37.2826 36.8315
lfingers 7.12502
lthumb -10.3473 66.557
rfemur -34.0804 -3.02374 18.1805
rtibia 55.5845
rfoot -23.3949 -14.7742
rtoes -10.9355
lfemur -31.6565 7.77258 -20.5544
ltibia 54.9927
lfoot -26.2342 9.67905
ltoes -13.5194
2015
root 0.13997 16.741 -1.40903 3.53691 -6.66609 1.46738
lowerback 16.5338 1.60849 -3.55947
upperback 10.8794 1.59818 -1.63523
thorax 2.30386 0.655554 0.0551996
lowerneck 1.30056 -6.11386 -6.48633
upperneck -6.58553 -7.65501 15.4684
head -1.24852 -4.0973 5.79282
rclavicle 5.96354e-015 -1.94809e-014
rhumerus 42.0189 21.1989 -44.4124
rradius 98.3091
rwrist -47.792
rhand -10.6839 2.06973
rfingers 7.12502
rthumb 15.325 -27.3424
lclavicle 5.96354e-015 -1.94809e-014
lhumerus 33.2529 -34.4572 81.3476
lradius 103.696
lwrist 54.4125
lhand -37.4618 36.78
lfingers 7.12502
lthumb -10.5201 66.4968
rfemur -34.1252 -3.19314 18.3408
rtibia 55.7617
rfoot -23.5182 -14.9149
rtoes -11.0992
lfemur -31.8035 7.59704 -20.3905
ltibia 55.1837
lfoot -26.2789 9.57878
ltoes -13.6849
2016
root 0.114916 16.7305 -1.41182 3.52207 -6.42467 1.46002
lowerback 16.5968 1.61934 -3.7018
upperback 10.8602 1.59178 -1.74673
thorax 2.25186 0.650459 0.0169858
lowerneck 1.41106 -6.05305 -6.56119
upperneck -6.41703 -7.58155 15.8106
head -1.20774 -4.06646 5.91093
rclavicle -9.74045e-015 8.74653e-015
rhumerus 42.4918 21.3942 -43.7489
rradius 98.1779
rwrist -48.2691
rhand -9.93744 1.39258
rfingers 7.12502
rthumb 16.0439 -27.9632
lclavicle -9.74045e-015 8.74653e-015
lhumerus 33.1317 -34.3022 81.7624
lradius 103.692
lwrist 54.0709
lhand -37.7709 37.6051
lfingers 7.12502
lthumb -10.8183 67.3065
rfemur -34.1533 -3.34432 18.4345
rtibia 55.9202
rfoot -23.6763 -14.9231
rtoes -10.8335
lfemur -31.9172 7.47567 -20.2873
ltibia 55.3804
lfoot -26.3315 9.54226
ltoes -14.0932
2017
root 0.0900405 16.7183 -1.41632 3.52234 -6.11876 1.34995
lowerback 16.6988 1.59781 -3.74486
upperback 10.8467 1.55401 -1.80884
thorax 2.18677 0.633254 -0.0211391
lowerneck 1.46039 -5.9927 -6.61992
upperneck -6.25518 -7.50837 16.11
head -1.16161 -4.0328 6.01147
rclavicle -1.53064e-014 5.96354e-015
rhumerus 43.0482 21.5292 -43.0858
rradius 98.2166
rwrist -48.8032
rhand -9.58611 -0.114514
rfingers 7.12502
rthumb 16.3822 -29.4427
lclavicle -1.53064e-014 5.96354e-015
lhumerus 32.6894 -33.9459 82.5203
lradius 103.69
lwrist 53.8478
lhand -37.7455 38.1653
lfingers 7.12502
lthumb -10.7938 67.868
rfemur -34.1803 -3.55736 18.6612
rtibia 56.0488
rfoot -23.7695 -15.0468
rtoes -10.6553
lfemur -32.0795 7.31988 -20.0661
ltibia 55.5953
lfoot -26.3356 9.44802
ltoes -14.324
2018
root 0.0673521 16.7089 -1.42018 3.5617 -5.806 1.212
lowerback 16.7527 1.60162 -3.69203
upperback 10.8533 1.56517 -1.87218
thorax 2.16861 0.644811 -0.12016
lowerneck 1.52745 -5.99067 -6.59748
upperneck -6.23049 -7.49889 16.3811
head -1.15553 -4.03732 6.09346
rclavicle 1.07344e-014 2.34566e-014
rhumerus 43.4906 21.5502 -42.5652
rradius 97.4688
rwrist -48.2852
rhand -8.41839 1.01151
rfingers 7.12502
rthumb 17.5062 -28.2203
lclavicle 1.07344e-014 2.34566e-014
lhumerus 32.3094 -33.7197 83.1931
lradius 103.731
lwrist 53.6899
lhand -37.7651 38.793
lfingers 7.12502
lthumb -10.8127 68.4946
rfemur -34.2305 -3.788 18.9175
rtibia 56.1561
rfoot -23.7988 -15.209
rtoes -10.7729
lfemur -32.2795 7.1434 -19.8309
ltibia 55.8063
lfoot -26.3833 9.27648
ltoes -13.9772
2019
root 0.0445924 16.7003 -1.42363 3.55973 -5.49786 1.12034
lowerback 16.8475 1.59596 -3.7062
upperback 10.863 1.55292 -1.96702
thorax 2.13332 0.642484 -0.212312
lowerneck 1.55141 -5.97094 -6.53621
upperneck -6.12255 -7.47184 16.6619
head -1.1215 -4.02956 6.16864
rclavicle -1.11319e-014 1.47101e-014
rhumerus 43.9375 21.6734 -42.1563
rradius 97.03
rwrist -48.2371
rhand -7.68628 1.25836
rfingers 7.12502
rthumb 18.2107 -27.9092
lclavicle -1.11319e-014 1.47101e-014
lhumerus 32.1364 -33.5791 83.4921
lradius 103.768
lwrist 53.443
lhand -38.0431 39.6989
lfingers 7.12502
lthumb -11.0809 69.3864
rfemur -34.2194 -4.02845 19.0943
rtibia 56.2492
rfoot -23.7811 -15.3038
rtoes -11.5422
lfemur -32.425 6.9437 -19.6565
ltibia 56.0132
lfoot -26.3295 9.27138
ltoes -14.0682
2020
root 0.0196655 16.6925 -1.42768 3.53074 -5.15527 1.05897
lowerback 16.99 1.5649 -3.79061
upperback 10.8631 1.49528 -2.05862
thorax 2.06284 0.614343 -0.256106
lowerneck 1.4814 -5.92718 -6.47262
upperneck -5.88322 -7.42738 16.8907
head -1.03836 -4.00292 6.22077
rclavicle -7.95139e-015 -1.98785e-015
rhumerus 44.381 21.8784 -41.7866
rradius 96.7681
rwrist -48.5694
rhand -7.28699 0.95271
rfingers 7.12502
rthumb 18.5948 -28.1785
lclavicle -7.95139e-015 -1.98785e-015
lhumerus 31.9327 -33.3644 83.7199
lradius 103.77
lwrist 53.1992
lhand -38.5979 40.5307
lfingers 7.12502
lthumb -11.6159 70.1887
rfemur -34.1946 -4.27397 19.2486
rtibia 56.3558
rfoot -23.7767 -15.4238
rtoes -12.3263
lfemur -32.5553 6.71434 -19.5043
ltibia 56.2049
lfoot -26.093 9.49594
ltoes -15.4532
